<svg version="1.1" xmlns="http://www.w3.org/2000/svg" viewBox="0 0 500 500">
<rect width="100%" height="100%" fill="#000"/>
<path fill="#FCFCFC" opacity="1.000000" stroke="none" 
	d="
M362.551453,325.844421 
	C337.436157,325.844879 312.773346,325.711029 288.114410,325.959290 
	C283.257019,326.008179 280.551788,324.309448 278.217499,320.220398 
	C261.083435,290.206055 243.771088,260.293518 226.501404,230.356689 
	C225.608643,228.809097 224.592468,227.332703 223.126236,225.024017 
	C208.013565,251.164398 193.285675,276.639221 177.953949,303.158508 
	C182.381393,303.158508 185.756546,303.120422 189.130524,303.167236 
	C194.455826,303.241058 199.788605,303.224274 205.102707,303.522491 
	C209.879822,303.790527 213.148315,302.378326 215.562988,297.819122 
	C220.615845,288.278717 226.234818,279.037201 231.665878,269.698883 
	C232.552124,268.175049 233.666550,266.783936 234.941498,264.948608 
	C238.234833,270.009857 241.310349,274.445831 244.077866,279.066315 
	C247.228851,284.326935 246.360535,289.582947 243.375534,294.645996 
	C238.061127,303.660095 232.912720,312.781708 227.264343,321.582001 
	C225.980652,323.582001 222.952072,325.638519 220.704376,325.663391 
	C195.046295,325.948120 169.383911,325.851501 143.722717,325.818146 
	C142.618027,325.816711 141.513809,325.441589 139.560715,325.086060 
	C167.429871,276.814941 195.013016,229.039215 223.025665,180.519562 
	C224.966660,183.596237 226.597198,185.994370 228.042313,188.499451 
	C249.380753,225.489319 270.715088,262.481628 291.970245,299.519348 
	C293.461761,302.118347 295.130157,303.296112 298.250793,303.232208 
	C308.051086,303.031738 317.858063,303.158478 328.531555,303.158478 
	C313.388000,276.896942 298.577026,251.212234 283.420532,224.928268 
	C279.455872,231.575241 275.702789,237.867493 271.704956,244.570099 
	C267.889984,238.438370 263.975677,232.905426 260.963043,226.918747 
	C259.812775,224.632889 259.673309,220.722549 260.876831,218.553177 
	C267.566711,206.494583 274.804749,194.739807 281.886139,182.899582 
	C282.204742,182.366898 282.822815,182.013351 283.797180,181.123672 
	C311.475250,229.038513 339.012268,276.709106 366.816650,324.842651 
	C365.126465,325.286713 364.065887,325.565369 362.551453,325.844421 
z"/>
<path fill="#FCFCFC" opacity="1.000000" stroke="none" 
	d="
M82.284454,125.999878 
	C82.284454,111.359138 82.284454,97.218414 82.284454,82.720139 
	C117.497040,82.720139 152.395767,82.720139 187.666245,82.720139 
	C187.666245,89.990768 187.666245,97.387115 187.666245,105.463539 
	C160.505005,105.463539 133.159576,105.463539 105.458893,105.463539 
	C105.458893,133.232040 105.458893,160.330063 105.458893,187.736908 
	C97.702827,187.736908 90.302376,187.736908 82.284447,187.736908 
	C82.284447,167.366913 82.284447,146.933395 82.284454,125.999878 
z"/>
<path fill="#FCFCFC" opacity="1.000000" stroke="none" 
	d="
M373.999695,105.533707 
	C353.862885,105.533684 334.226105,105.533684 314.275940,105.533684 
	C314.275940,97.818962 314.275940,90.409760 314.275940,82.678207 
	C349.093964,82.678207 384.000244,82.678207 419.309082,82.678207 
	C419.309082,117.520744 419.309082,152.397934 419.309082,187.662262 
	C412.116180,187.662262 404.721100,187.662262 396.804504,187.662262 
	C396.804504,160.647507 396.804504,133.439713 396.804504,105.533722 
	C389.038147,105.533722 381.768921,105.533722 373.999695,105.533707 
z"/>
<path fill="#FCFCFC" opacity="1.000000" stroke="none" 
	d="
M82.284454,328.009613 
	C82.284454,323.205475 82.284454,318.898987 82.284454,314.275391 
	C89.998405,314.275391 97.409706,314.275391 105.326996,314.275391 
	C105.326996,341.416962 105.326996,368.644257 105.326996,396.364258 
	C133.063705,396.364258 160.306061,396.364258 187.790283,396.364258 
	C187.790283,404.275238 187.790283,411.690857 187.790283,419.374268 
	C152.789352,419.374268 117.879196,419.374268 82.284447,419.374268 
	C82.284447,389.003632 82.284447,358.755432 82.284454,328.009613 
z"/>
<path fill="#FCFCFC" opacity="1.000000" stroke="none" 
	d="
M371.999756,419.639832 
	C352.532806,419.639832 333.565857,419.639832 314.280792,419.639832 
	C314.280792,411.917053 314.280792,404.505920 314.280792,396.595215 
	C341.418365,396.595215 368.652802,396.595215 396.418915,396.595215 
	C396.418915,368.892487 396.418915,341.675110 396.418915,314.206909 
	C404.358246,314.206909 411.764801,314.206909 419.442200,314.206909 
	C419.442200,349.202545 419.442200,384.101288 419.442200,419.639862 
	C403.704376,419.639862 388.102081,419.639862 371.999756,419.639832 
z"/>
<path fill="#FD0000" opacity="1.000000" stroke="none" 
	d="
M119.613205,151.346390 
	C113.131775,143.684219 112.046387,134.581039 116.432854,126.578522 
	C120.680321,118.829582 128.728760,114.935013 138.320343,115.987358 
	C146.189606,116.850739 153.184326,123.099716 155.483963,131.321106 
	C157.980316,140.245804 154.364410,149.439789 146.304352,154.661606 
	C137.773315,160.188538 128.843460,159.155807 119.613205,151.346390 
z"/>
</svg>